<svg xmlns="http://www.w3.org/2000/svg" xml:space="preserve" viewBox="0 0 420 140.4"><path fill="#444" d="M391 47.1c-5.8-1.4-13.7-.4-17.9 2.7-8.4 6.1-12.7 16.1-8.4 24.2 2 4 5.8 7.9 10.8 9.3 4.9 1.4 10.5-.7 11.6-5.9 1-4.8-2.8-9.6-8.1-8.1-6.4 1.7-3.8 8.6-1.4 9.4-7.2-1.3-9.8-10.8-7.9-16.3 3.4-9.4 17.5-10.9 25.3-6.2 11.1 6.6 14.4 18.5 10 30.9-8.7 24.2-44.8 17.6-65.2 8.4-6.3-2.8-13.7-6.4-21.5-9.7-1.7-.7-3.4-1.4-5-2-.7-.3-1.4-.6-2.2-.8 3 .4 5.9.7 9-.2 3.1-.9 5.8-2.7 7.5-5.5 3.6-6.1 1.2-12.5-5.1-14.9-5.4-2.1-13.3.6-12.9 7.4.5 7.6 7.7 7.5 9.4 5.4.5-.4.8-1.1.8-1.8 0-1.3-1.1-2.4-2.4-2.4-1.3 0-2.4 1.1-2.4 2.4-1.1-.1-2.1-.6-2.8-1.9-1-1.9-.2-5 1.7-6 5.2-2.8 11.9 1.3 11.9 5.9-.1 11.5-19.2 10-19.3 10.1-24-8.5-50-11.5-64 13.4-.5.9 1.6 1.6 1.9 1.4 3.2-3.8 4.8-5.5 9.5-8 2.7-1.5 7.9-2.1 10.9-1.1 2.3.7 4.9 1.9 6 5 .9 2.6-.8 7.3-6.7 5.2-3.3-1.1-4.1 5.4 2 5.4 4.8 0 8.8-4.3 8.2-8.8-1.2-9.6-11.9-10.8-20.5-7.5 17.1-14.1 42.4-5.8 63.7 3.2.2.2 8.8 4.6 10.9 6.3 4.9 3.7 6.8 5.4 8 10.1 1.4 5.7-1.6 9.9-5.6 11.7-8.7 3.2-7.1-5.3-10.9-5.2-2.9.1-4.8 3.8 0 7.9 6 5.1 16.2 2.5 19.4-4.4 3.2-6.9 1.1-13.1-3.5-18.3l2.1.9c19.8 8.8 52.8 19.3 68.6-2.5 12.5-17.5 7.8-43.4-15.5-49.1zM269.2 71.3c1.9 0 3.5-1.6 3.5-3.5s-1.6-3.5-3.5-3.5-3.5 1.6-3.5 3.5c0 2 1.6 3.5 3.5 3.5z"/><circle cx="284.8" cy="67.9" r="2.2" fill="#444"/><path fill="#444" d="M297.9 73.9c.6 0 1-.5 1-1 0-.6-.5-1-1-1-.6 0-1 .5-1 1 0 .6.4 1 1 1zM349.3 112c-1.9 0-3.5 1.6-3.5 3.5s1.6 3.5 3.5 3.5 3.5-1.6 3.5-3.5-1.6-3.5-3.5-3.5zM344.7 125.5c-1.2 0-2.2 1-2.2 2.2 0 1.2 1 2.2 2.2 2.2 1.2 0 2.2-1 2.2-2.2 0-1.3-1-2.2-2.2-2.2zM334.1 129.4c-.6 0-1 .5-1 1 0 .6.5 1 1 1 .6 0 1-.5 1-1s-.5-1-1-1zM150.8 71.3c1.9 0 3.5-1.6 3.5-3.5s-1.6-3.5-3.5-3.5-3.5 1.6-3.5 3.5c0 2 1.6 3.5 3.5 3.5zM135.2 70c1.2 0 2.2-1 2.2-2.2 0-1.2-1-2.2-2.2-2.2-1.2 0-2.2 1-2.2 2.2 0 1.2 1 2.2 2.2 2.2zM122.1 73.9c.6 0 1-.5 1-1 0-.6-.5-1-1-1-.6 0-1 .5-1 1 0 .6.4 1 1 1zM74.2 115.5c0-1.9-1.6-3.5-3.5-3.5s-3.5 1.6-3.5 3.5 1.6 3.5 3.5 3.5 3.5-1.6 3.5-3.5zM75.3 125.5c-1.2 0-2.2 1-2.2 2.2 0 1.2 1 2.2 2.2 2.2 1.2 0 2.2-1 2.2-2.2-.1-1.3-1.1-2.2-2.2-2.2zM85.9 129.4c-.6 0-1 .5-1 1 0 .6.5 1 1 1 .6 0 1-.5 1-1 .1-.5-.4-1-1-1z"/><path fill="#444" d="M113.4 81.3c-.1-.1-19.2 1.4-19.3-10.1 0-4.6 6.7-8.7 11.9-5.9 1.9 1 2.8 4.1 1.7 6-.7 1.4-1.7 1.8-2.8 1.9 0-1.3-1.1-2.4-2.4-2.4-1.3 0-2.4 1.1-2.4 2.4 0 .7.3 1.3.8 1.8 1.7 2.1 8.9 2.2 9.4-5.4.5-6.8-7.5-9.4-12.9-7.4-6.3 2.4-8.7 8.7-5.1 14.9 1.7 2.8 4.4 4.6 7.5 5.5 3.1.9 6 .6 9 .2-.7.3-1.4.6-2.2.8-1.7.6-3.3 1.3-5 2-7.9 3.3-15.2 6.8-21.5 9.7-20.5 9.2-56.5 15.8-65.2-8.4-4.5-12.3-1.1-24.2 10-30.9 7.8-4.7 21.9-3.1 25.3 6.2 2 5.4-.6 15-7.9 16.3 2.4-.8 5-7.7-1.4-9.4-5.4-1.5-9.2 3.3-8.1 8.1 1.1 5.2 6.7 7.3 11.6 5.9 5-1.4 8.8-5.3 10.8-9.3 4.4-8.1.1-18.1-8.4-24.2-4.1-3.1-12.1-4.1-17.9-2.7C5.7 52.8 1 78.7 13.5 96.1c15.7 21.8 48.8 11.4 68.6 2.5l2.1-.9c-4.7 5.2-6.7 11.4-3.5 18.3 3.2 6.8 13.4 9.5 19.4 4.4 4.8-4.1 2.9-7.8 0-7.9-3.9-.2-2.2 8.3-10.9 5.2-4-1.8-7-6-5.6-11.7 1.2-4.6 3.1-6.4 8-10.1 2.2-1.6 10.7-6.1 10.9-6.3 21.3-9.1 46.6-17.4 63.7-3.2-8.6-3.2-19.3-2.1-20.5 7.5-.6 4.5 3.3 8.8 8.2 8.8 6.1 0 5.3-6.5 2-5.4-5.9 2-7.6-2.6-6.7-5.2 1.1-3.1 3.7-4.3 6-5 3-1 8.2-.4 10.9 1.1 4.7 2.6 6.3 4.2 9.5 8 .2.3 2.4-.5 1.9-1.4-14.2-25-40.1-22-64.1-13.5zM255.6 39.2c-7.4-.5-14.7.4-21.2 4 .8-6.8 1-13.5 1.1-19 0-1.6-1.7-2.3-3-1.7-5.4 2.6-9.5 5.7-12.7 10.4-2-7.9-4.6-14.6-8.9-21.7-1-1.6-2.4-3.9-4-.3-2.7 5.7-5.1 13.5-6.9 21.7-3.2-4.5-7.2-7.6-12.5-10.1-1.3-.6-3 .1-3 1.7.1 5.6.4 12.2 1.1 19-6.5-3.6-13.8-4.5-21.2-4-1.4.1-2.7 1.7-1.8 3.1 7.9 11.7 15.1 25.7 26.2 34.8 5.2 4.2 13 8.5 19.7 6.6.2.1.3.1.5.2.3.1 1.6.1 1.9 0 .2-.1.4-.1.5-.2 6.6 1.9 14.5-2.4 19.7-6.6 11.1-9.1 18.3-23.1 26.2-34.8.9-1.4-.3-3-1.7-3.1zm-87.2 4.2c6 .4 11.6 1.5 17.6 2.8 1.6 11.3 4.8 22.7 11.8 30.3-12.7-5.9-21.5-21.5-29.4-33.1zm20.2-15.9c3.9 2.2 7.4 4.8 10.8 7.8-2.9 14.8-3.2 30.8 5.2 41-13.4-10.7-15.3-32.6-16-48.8zm21.5 51.3h-.2c-13-16.7-7.5-43-1-62.2 9.4 17.7 14.6 45.8 1.2 62.2zm11.8-25.5c.3-6.1-.2-12.1-1.5-17.9 3.5-3 7-5.7 11-7.9-.7 14.7-2.3 34-12.5 45.4 2.3-6.5 2.7-14.7 3-19.6zm.3 23.1c7-7.6 10.3-19 11.8-30.3 5.9-1.2 11.6-2.4 17.6-2.8-7.9 11.7-16.7 27.3-29.4 33.1z"/></svg>